<svg width="30" height="29" viewBox="0 0 30 29" fill="none" xmlns="http://www.w3.org/2000/svg">
<path d="M10.0343 22.8164C10.0343 22.9336 9.89516 23.0273 9.71976 23.0273C9.52016 23.0449 9.38105 22.9512 9.38105 22.8164C9.38105 22.6992 9.52016 22.6055 9.69556 22.6055C9.87702 22.5879 10.0343 22.6816 10.0343 22.8164ZM8.15323 22.5527C8.11089 22.6699 8.23186 22.8047 8.41331 22.8398C8.57056 22.8984 8.75202 22.8398 8.78831 22.7227C8.8246 22.6055 8.70968 22.4707 8.52823 22.418C8.37097 22.377 8.19556 22.4355 8.15323 22.5527ZM10.8266 22.4531C10.6512 22.4941 10.5302 22.6055 10.5484 22.7402C10.5665 22.8574 10.7238 22.9336 10.9052 22.8926C11.0806 22.8516 11.2016 22.7402 11.1835 22.623C11.1653 22.5117 11.002 22.4355 10.8266 22.4531ZM14.8065 0C6.41734 0 0 6.16992 0 14.2969C0 20.7949 4.22177 26.3555 10.252 28.3125C11.0262 28.4473 11.2984 27.9844 11.2984 27.6035C11.2984 27.2402 11.2802 25.2363 11.2802 24.0059C11.2802 24.0059 7.04637 24.8848 6.15726 22.2598C6.15726 22.2598 5.46774 20.5547 4.47581 20.1152C4.47581 20.1152 3.09073 19.1953 4.57258 19.2129C4.57258 19.2129 6.07863 19.3301 6.90726 20.7246C8.23185 22.9863 10.4516 22.3359 11.3165 21.9492C11.4556 21.0117 11.8488 20.3613 12.2843 19.9746C8.90323 19.6113 5.49194 19.1367 5.49194 13.5C5.49194 11.8887 5.95161 11.0801 6.91935 10.0488C6.7621 9.66797 6.24798 8.09766 7.07661 6.07031C8.34073 5.68945 11.25 7.65234 11.25 7.65234C12.4597 7.32422 13.7601 7.1543 15.0484 7.1543C16.3367 7.1543 17.6371 7.32422 18.8468 7.65234C18.8468 7.65234 21.756 5.68359 23.0202 6.07031C23.8488 8.10352 23.3347 9.66797 23.1774 10.0488C24.1452 11.0859 24.7379 11.8945 24.7379 13.5C24.7379 19.1543 21.1754 19.6055 17.7944 19.9746C18.3508 20.4375 18.8226 21.3164 18.8226 22.6934C18.8226 24.668 18.8044 27.1113 18.8044 27.5918C18.8044 27.9727 19.0827 28.4355 19.8508 28.3008C25.8992 26.3555 30 20.7949 30 14.2969C30 6.16992 23.1956 0 14.8065 0ZM5.87903 20.209C5.8004 20.2676 5.81855 20.4023 5.92137 20.5137C6.01815 20.6074 6.15726 20.6484 6.23589 20.5723C6.31452 20.5137 6.29637 20.3789 6.19355 20.2676C6.09677 20.1738 5.95766 20.1328 5.87903 20.209ZM5.22581 19.7344C5.18347 19.8105 5.24395 19.9043 5.36492 19.9629C5.46169 20.0215 5.58266 20.0039 5.625 19.9219C5.66734 19.8457 5.60685 19.752 5.48589 19.6934C5.36492 19.6582 5.26815 19.6758 5.22581 19.7344ZM7.18548 21.8203C7.08871 21.8965 7.125 22.0723 7.26411 22.1836C7.40323 22.3184 7.57863 22.3359 7.65726 22.2422C7.73589 22.166 7.6996 21.9902 7.57863 21.8789C7.44556 21.7441 7.26411 21.7266 7.18548 21.8203ZM6.49597 20.959C6.39919 21.0176 6.39919 21.1699 6.49597 21.3047C6.59274 21.4395 6.75605 21.498 6.83468 21.4395C6.93145 21.3633 6.93145 21.2109 6.83468 21.0762C6.75 20.9414 6.59274 20.8828 6.49597 20.959Z" fill="#94A3B8"/>
</svg>
