<svg width="85" height="30" viewBox="0 0 85 30" fill="none" xmlns="http://www.w3.org/2000/svg">
<path d="M0.181818 15.2273V13.8182C1.44697 13.8182 2.32955 13.553 2.82955 13.0227C3.33712 12.4924 3.59091 11.6061 3.59091 10.3636V6.72727C3.59091 5.68182 3.68939 4.77651 3.88636 4.01136C4.09091 3.24621 4.42045 2.61364 4.875 2.11364C5.32955 1.61364 5.93561 1.24242 6.69318 1C7.45076 0.757575 8.38636 0.636362 9.5 0.636362V2.86364C8.62121 2.86364 7.92803 3 7.42045 3.27273C6.92045 3.54545 6.56439 3.9697 6.35227 4.54545C6.14773 5.11364 6.04545 5.84091 6.04545 6.72727V11.2727C6.04545 11.8636 5.96591 12.4015 5.80682 12.8864C5.6553 13.3712 5.37121 13.7879 4.95455 14.1364C4.53788 14.4848 3.94318 14.7538 3.17045 14.9432C2.4053 15.1326 1.40909 15.2273 0.181818 15.2273ZM9.5 29.7273C8.38636 29.7273 7.45076 29.6061 6.69318 29.3636C5.93561 29.1212 5.32955 28.75 4.875 28.25C4.42045 27.75 4.09091 27.1174 3.88636 26.3523C3.68939 25.5871 3.59091 24.6818 3.59091 23.6364V20C3.59091 18.7576 3.33712 17.8712 2.82955 17.3409C2.32955 16.8106 1.44697 16.5455 0.181818 16.5455V15.1364C1.40909 15.1364 2.4053 15.2311 3.17045 15.4205C3.94318 15.6098 4.53788 15.8788 4.95455 16.2273C5.37121 16.5758 5.6553 16.9924 5.80682 17.4773C5.96591 17.9621 6.04545 18.5 6.04545 19.0909V23.6364C6.04545 24.5227 6.14773 25.25 6.35227 25.8182C6.56439 26.3864 6.92045 26.8068 7.42045 27.0795C7.92803 27.3598 8.62121 27.5 9.5 27.5V29.7273ZM0.181818 16.5455V13.8182H2.86364V16.5455H0.181818ZM84.9403 15.1364V16.5455C83.6752 16.5455 82.7888 16.8106 82.2812 17.3409C81.7812 17.8712 81.5312 18.7576 81.5312 20V23.6364C81.5312 24.6818 81.429 25.5871 81.2244 26.3523C81.0275 27.1174 80.7017 27.75 80.2472 28.25C79.7926 28.75 79.1866 29.1212 78.429 29.3636C77.6714 29.6061 76.7358 29.7273 75.6222 29.7273V27.5C76.5009 27.5 77.1903 27.3598 77.6903 27.0795C78.1979 26.8068 78.554 26.3864 78.7585 25.8182C78.9706 25.25 79.0767 24.5227 79.0767 23.6364V19.0909C79.0767 18.5 79.1525 17.9621 79.304 17.4773C79.4631 16.9924 79.7509 16.5758 80.1676 16.2273C80.5843 15.8788 81.1752 15.6098 81.9403 15.4205C82.7131 15.2311 83.7131 15.1364 84.9403 15.1364ZM75.6222 0.636362C76.7358 0.636362 77.6714 0.757575 78.429 1C79.1866 1.24242 79.7926 1.61364 80.2472 2.11364C80.7017 2.61364 81.0275 3.24621 81.2244 4.01136C81.429 4.77651 81.5312 5.68182 81.5312 6.72727V10.3636C81.5312 11.6061 81.7812 12.4924 82.2812 13.0227C82.7888 13.553 83.6752 13.8182 84.9403 13.8182V15.2273C83.7131 15.2273 82.7131 15.1326 81.9403 14.9432C81.1752 14.7538 80.5843 14.4848 80.1676 14.1364C79.7509 13.7879 79.4631 13.3712 79.304 12.8864C79.1525 12.4015 79.0767 11.8636 79.0767 11.2727V6.72727C79.0767 5.84091 78.9706 5.11364 78.7585 4.54545C78.554 3.9697 78.1979 3.54545 77.6903 3.27273C77.1903 3 76.5009 2.86364 75.6222 2.86364V0.636362ZM84.9403 13.8182V16.5455H82.2585V13.8182H84.9403Z" fill="#E11D48"/>
<path d="M18.4688 25V1.72727H28.5142C30.2415 1.72727 31.7528 2.04167 33.0483 2.67045C34.3438 3.29924 35.3513 4.20455 36.071 5.38636C36.7907 6.56818 37.1506 7.98485 37.1506 9.63636C37.1506 11.303 36.7794 12.7083 36.0369 13.8523C35.3021 14.9962 34.268 15.8598 32.9347 16.4432C31.6089 17.0265 30.0597 17.3182 28.2869 17.3182H22.2869V12.4091H27.0142C27.7566 12.4091 28.3892 12.3182 28.9119 12.1364C29.4422 11.947 29.8475 11.6477 30.1278 11.2386C30.4157 10.8295 30.5597 10.2955 30.5597 9.63636C30.5597 8.9697 30.4157 8.42803 30.1278 8.01136C29.8475 7.58712 29.4422 7.27651 28.9119 7.07954C28.3892 6.875 27.7566 6.77273 27.0142 6.77273H24.7869V25H18.4688ZM32.1051 14.3182L37.9233 25H31.0597L25.3778 14.3182H32.1051ZM39.8438 1.72727H47.7074L53.1165 14.9091H53.3892L58.7983 1.72727H66.6619V25H60.4801V11.5455H60.2983L55.1165 24.8182H51.3892L46.2074 11.4545H46.0256V25H39.8438V1.72727Z" fill="#94A3B8"/>
</svg>
